<mxfile host="app.diagrams.net" agent="Mozilla/5.0 (Windows NT 10.0; Win64; x64) AppleWebKit/537.36 (KHTML, like Gecko) Chrome/131.0.0.0 Safari/537.36 Edg/131.0.0.0" version="25.0.3">
  <diagram name="Page-1" id="03018318-947c-dd8e-b7a3-06fadd420f32">
    <mxGraphModel dx="1564" dy="1641" grid="1" gridSize="10" guides="1" tooltips="1" connect="1" arrows="1" fold="1" page="1" pageScale="1" pageWidth="1100" pageHeight="850" background="#ffffff" math="0" shadow="0">
      <root>
        <mxCell id="0" />
        <mxCell id="1" parent="0" />
        <mxCell id="677b7b8949515195-1" value="" style="whiteSpace=wrap;html=1;rounded=0;shadow=0;labelBackgroundColor=none;strokeColor=#000000;strokeWidth=1;fillColor=none;fontFamily=Verdana;fontSize=12;fontColor=#000000;align=center;comic=1;" parent="1" vertex="1">
          <mxGeometry x="1120" y="-250" width="1060" height="810" as="geometry" />
        </mxCell>
        <mxCell id="677b7b8949515195-10" value="" style="whiteSpace=wrap;html=1;rounded=0;shadow=0;labelBackgroundColor=none;strokeWidth=1;fillColor=none;fontFamily=Verdana;fontSize=12;align=center;comic=1;" parent="1" vertex="1">
          <mxGeometry x="1160" y="50" width="1040" height="50" as="geometry" />
        </mxCell>
        <mxCell id="677b7b8949515195-12" value="Section 2" style="text;html=1;points=[];align=left;verticalAlign=top;spacingTop=-4;fontSize=14;fontFamily=Verdana" parent="1" vertex="1">
          <mxGeometry x="1607" y="65" width="60" height="20" as="geometry" />
        </mxCell>
        <mxCell id="677b7b8949515195-13" value="Section 3" style="text;html=1;points=[];align=left;verticalAlign=top;spacingTop=-4;fontSize=14;fontFamily=Verdana" parent="1" vertex="1">
          <mxGeometry x="1753" y="65" width="60" height="20" as="geometry" />
        </mxCell>
        <mxCell id="677b7b8949515195-14" value="Section 4" style="text;html=1;points=[];align=left;verticalAlign=top;spacingTop=-4;fontSize=14;fontFamily=Verdana" parent="1" vertex="1">
          <mxGeometry x="1900" y="65" width="60" height="20" as="geometry" />
        </mxCell>
        <mxCell id="677b7b8949515195-26" value="" style="whiteSpace=wrap;html=1;rounded=0;shadow=0;labelBackgroundColor=none;strokeWidth=1;fillColor=none;fontFamily=Verdana;fontSize=12;align=center;comic=1;jiggle=1;" parent="1" vertex="1">
          <mxGeometry x="1160" y="170" width="230" height="180" as="geometry" />
        </mxCell>
        <mxCell id="677b7b8949515195-42" value="External Links" style="text;html=1;points=[];align=left;verticalAlign=top;spacingTop=-4;fontSize=14;fontFamily=Verdana" parent="1" vertex="1">
          <mxGeometry x="1180" y="190" width="170" height="20" as="geometry" />
        </mxCell>
        <mxCell id="m-mZeuIqF68aQpEZWhJe-5" value="" style="swimlane;startSize=0;comic=1;" parent="1" vertex="1">
          <mxGeometry x="-340" y="-10" width="1060" height="840" as="geometry">
            <mxRectangle x="20" width="50" height="40" as="alternateBounds" />
          </mxGeometry>
        </mxCell>
        <mxCell id="m-mZeuIqF68aQpEZWhJe-1" value="Tools" style="text;html=1;points=[];align=left;verticalAlign=top;spacingTop=-4;fontSize=14;fontFamily=Verdana" parent="m-mZeuIqF68aQpEZWhJe-5" vertex="1">
          <mxGeometry x="330" y="35" width="60" height="20" as="geometry" />
        </mxCell>
        <mxCell id="677b7b8949515195-3" value="Search" style="strokeWidth=1;shadow=0;dashed=0;align=center;html=1;shape=mxgraph.mockup.forms.searchBox;strokeColor=#999999;mainText=;strokeColor2=#008cff;fontColor=#666666;fontSize=17;align=left;spacingLeft=3;rounded=0;labelBackgroundColor=none;comic=1;" parent="m-mZeuIqF68aQpEZWhJe-5" vertex="1">
          <mxGeometry x="413" y="30" width="220" height="30" as="geometry" />
        </mxCell>
        <mxCell id="677b7b8949515195-4" value="Tasks" style="text;html=1;points=[];align=left;verticalAlign=top;spacingTop=-4;fontSize=14;fontFamily=Verdana" parent="m-mZeuIqF68aQpEZWhJe-5" vertex="1">
          <mxGeometry x="693" y="35" width="60" height="20" as="geometry" />
        </mxCell>
        <mxCell id="677b7b8949515195-5" value="Projects" style="text;html=1;points=[];align=left;verticalAlign=top;spacingTop=-4;fontSize=14;fontFamily=Verdana" parent="m-mZeuIqF68aQpEZWhJe-5" vertex="1">
          <mxGeometry x="753" y="35" width="60" height="20" as="geometry" />
        </mxCell>
        <mxCell id="677b7b8949515195-6" value="Calendar" style="text;html=1;points=[];align=left;verticalAlign=top;spacingTop=-4;fontSize=14;fontFamily=Verdana" parent="m-mZeuIqF68aQpEZWhJe-5" vertex="1">
          <mxGeometry x="833" y="35" width="60" height="20" as="geometry" />
        </mxCell>
        <mxCell id="677b7b8949515195-7" value="Goals" style="text;html=1;points=[];align=left;verticalAlign=top;spacingTop=-4;fontSize=14;fontFamily=Verdana" parent="m-mZeuIqF68aQpEZWhJe-5" vertex="1">
          <mxGeometry x="913" y="35" width="60" height="20" as="geometry" />
        </mxCell>
        <mxCell id="677b7b8949515195-2" value="&lt;font style=&quot;font-size: 20px;&quot;&gt;Home&lt;/font&gt;" style="whiteSpace=wrap;html=1;rounded=0;shadow=0;labelBackgroundColor=none;strokeWidth=1;fontFamily=Verdana;fontSize=28;align=center;comic=1;" parent="m-mZeuIqF68aQpEZWhJe-5" vertex="1">
          <mxGeometry x="40" y="25" width="120" height="30" as="geometry" />
        </mxCell>
        <mxCell id="677b7b8949515195-9" value="" style="line;strokeWidth=1;html=1;rounded=0;shadow=0;labelBackgroundColor=none;fillColor=none;fontFamily=Verdana;fontSize=14;fontColor=#000000;align=center;comic=1;" parent="m-mZeuIqF68aQpEZWhJe-5" vertex="1">
          <mxGeometry y="70" width="1060" height="10" as="geometry" />
        </mxCell>
        <mxCell id="BiX-Eu7iPSx3heH80s0Q-1" value="" style="swimlane;startSize=0;comic=1;" vertex="1" parent="m-mZeuIqF68aQpEZWhJe-5">
          <mxGeometry x="10" y="80" width="250" height="720" as="geometry" />
        </mxCell>
        <mxCell id="BiX-Eu7iPSx3heH80s0Q-5" value="Task 1" style="swimlane;whiteSpace=wrap;html=1;comic=1;" vertex="1" parent="BiX-Eu7iPSx3heH80s0Q-1">
          <mxGeometry x="10" y="150" width="230" height="220" as="geometry">
            <mxRectangle x="10" y="150" width="80" height="30" as="alternateBounds" />
          </mxGeometry>
        </mxCell>
        <mxCell id="BiX-Eu7iPSx3heH80s0Q-6" value="Done" style="html=1;whiteSpace=wrap;fillColor=none;" vertex="1" parent="BiX-Eu7iPSx3heH80s0Q-5">
          <mxGeometry x="80" y="180" width="70" height="30" as="geometry" />
        </mxCell>
        <mxCell id="BiX-Eu7iPSx3heH80s0Q-9" value="Due Date" style="text;html=1;align=left;verticalAlign=middle;whiteSpace=wrap;rounded=0;" vertex="1" parent="BiX-Eu7iPSx3heH80s0Q-5">
          <mxGeometry x="10" y="32" width="60" height="30" as="geometry" />
        </mxCell>
        <mxCell id="BiX-Eu7iPSx3heH80s0Q-10" value="Planned Date" style="text;html=1;align=left;verticalAlign=middle;whiteSpace=wrap;rounded=0;" vertex="1" parent="BiX-Eu7iPSx3heH80s0Q-5">
          <mxGeometry x="10" y="60" width="170" height="30" as="geometry" />
        </mxCell>
        <mxCell id="BiX-Eu7iPSx3heH80s0Q-11" value="Task Type" style="text;html=1;align=left;verticalAlign=middle;whiteSpace=wrap;rounded=0;" vertex="1" parent="BiX-Eu7iPSx3heH80s0Q-5">
          <mxGeometry x="10" y="90" width="170" height="30" as="geometry" />
        </mxCell>
        <mxCell id="BiX-Eu7iPSx3heH80s0Q-12" value="Task Status" style="text;html=1;align=left;verticalAlign=middle;whiteSpace=wrap;rounded=0;" vertex="1" parent="BiX-Eu7iPSx3heH80s0Q-5">
          <mxGeometry x="10" y="119" width="170" height="30" as="geometry" />
        </mxCell>
        <mxCell id="BiX-Eu7iPSx3heH80s0Q-13" value="Project" style="text;html=1;align=left;verticalAlign=middle;whiteSpace=wrap;rounded=0;" vertex="1" parent="BiX-Eu7iPSx3heH80s0Q-5">
          <mxGeometry x="10" y="149" width="170" height="30" as="geometry" />
        </mxCell>
        <mxCell id="BiX-Eu7iPSx3heH80s0Q-14" value="Task 2" style="swimlane;whiteSpace=wrap;html=1;comic=1;" vertex="1" parent="BiX-Eu7iPSx3heH80s0Q-1">
          <mxGeometry x="10" y="380" width="230" height="220" as="geometry">
            <mxRectangle x="10" y="150" width="80" height="30" as="alternateBounds" />
          </mxGeometry>
        </mxCell>
        <mxCell id="BiX-Eu7iPSx3heH80s0Q-15" value="Done" style="html=1;whiteSpace=wrap;fillColor=none;" vertex="1" parent="BiX-Eu7iPSx3heH80s0Q-14">
          <mxGeometry x="80" y="180" width="70" height="30" as="geometry" />
        </mxCell>
        <mxCell id="BiX-Eu7iPSx3heH80s0Q-16" value="Due Date" style="text;html=1;align=left;verticalAlign=middle;whiteSpace=wrap;rounded=0;" vertex="1" parent="BiX-Eu7iPSx3heH80s0Q-14">
          <mxGeometry x="10" y="32" width="60" height="30" as="geometry" />
        </mxCell>
        <mxCell id="BiX-Eu7iPSx3heH80s0Q-17" value="Planned Date" style="text;html=1;align=left;verticalAlign=middle;whiteSpace=wrap;rounded=0;" vertex="1" parent="BiX-Eu7iPSx3heH80s0Q-14">
          <mxGeometry x="10" y="60" width="170" height="30" as="geometry" />
        </mxCell>
        <mxCell id="BiX-Eu7iPSx3heH80s0Q-18" value="Task Type" style="text;html=1;align=left;verticalAlign=middle;whiteSpace=wrap;rounded=0;" vertex="1" parent="BiX-Eu7iPSx3heH80s0Q-14">
          <mxGeometry x="10" y="90" width="170" height="30" as="geometry" />
        </mxCell>
        <mxCell id="BiX-Eu7iPSx3heH80s0Q-19" value="Task Status" style="text;html=1;align=left;verticalAlign=middle;whiteSpace=wrap;rounded=0;" vertex="1" parent="BiX-Eu7iPSx3heH80s0Q-14">
          <mxGeometry x="10" y="119" width="170" height="30" as="geometry" />
        </mxCell>
        <mxCell id="BiX-Eu7iPSx3heH80s0Q-20" value="Project" style="text;html=1;align=left;verticalAlign=middle;whiteSpace=wrap;rounded=0;" vertex="1" parent="BiX-Eu7iPSx3heH80s0Q-14">
          <mxGeometry x="10" y="149" width="170" height="30" as="geometry" />
        </mxCell>
        <mxCell id="m-mZeuIqF68aQpEZWhJe-2" value="" style="line;strokeWidth=1;html=1;rounded=0;shadow=0;labelBackgroundColor=none;fillColor=none;fontFamily=Verdana;fontSize=14;fontColor=#000000;align=center;comic=1;" parent="m-mZeuIqF68aQpEZWhJe-5" vertex="1">
          <mxGeometry y="800" width="1060" height="10" as="geometry" />
        </mxCell>
      </root>
    </mxGraphModel>
  </diagram>
</mxfile>
